<?xml version="1.0" encoding="utf-8"?>
<!-- Generator: Adobe Illustrator 24.3.0, SVG Export Plug-In . SVG Version: 6.00 Build 0)  -->
<svg version="1.1" id="Layer_1" xmlns="http://www.w3.org/2000/svg" xmlns:xlink="http://www.w3.org/1999/xlink" x="0px" y="0px"
	 viewBox="0 0 24 24" style="enable-background:new 0 0 24 24;" xml:space="preserve">
<style type="text/css">
	.st0{fill:#FFFFFF;}
</style>
<g>
	<path class="st0" d="M0.2,2.5c0.8-0.8,1.6-1.6,2.4-2.4c0.2-0.2,0.6-0.2,0.8,0C6.2,3.1,9.1,5.9,12,8.8c2.9-2.9,5.8-5.8,8.7-8.7
		c0.2-0.2,0.6-0.2,0.8,0c0.8,0.8,1.6,1.6,2.4,2.4c0.2,0.2,0.2,0.6,0,0.8c-2.9,2.9-5.8,5.8-8.7,8.7c2.9,2.9,5.8,5.8,8.7,8.7
		c0.2,0.2,0.2,0.6,0,0.8c-0.8,0.8-1.6,1.6-2.4,2.4c-0.2,0.2-0.6,0.2-0.8,0c-2.9-2.9-5.8-5.8-8.7-8.7c-2.9,2.9-5.8,5.8-8.7,8.7
		c-0.2,0.2-0.6,0.2-0.8,0c-0.8-0.8-1.6-1.6-2.4-2.4c-0.2-0.2-0.2-0.6,0-0.8c2.9-2.9,5.8-5.8,8.7-8.7C5.9,9.1,3.1,6.2,0.2,3.3
		C-0.1,3.1-0.1,2.7,0.2,2.5z"/>
</g>
</svg>
